# xmcd CD database file
# Copyright (C) 1993-1998 Ti Kan
#
# Track frame offsets:
#  182
#  15670
#  32462
#  49387
#  61700
#  77945
#  91722
#  107585
#  128332
#  141722
#  160892
#  183672
#  199065
#  212737
#  226177
#  240695
#  260607
#  282517
#  300380
#  313697
#
# Disc length: 4320 seconds
#
# Revision: 1
# Processed by: cddbd v1.4b41PL1 Copyright (c) Steve Scherf et al.
# Submitted via: CDWizzard Release:4.35
#
DISCID=1210de14
DTITLE=Andrae Crouch - The Best  Of Andrae
DYEAR=1900
DGENRE=
TTITLE0=Take A Little Time
TTITLE1=Everything Changed
TTITLE2=Tell Them
TTITLE3=I'm Gonna Keep On Singin'
TTITLE4=My Tribute (To God Be The Glory)
TTITLE5=Bless His Holy Name (Psalm 1:03)
TTITLE6=I'm Coming Home
TTITLE7=Just Like He Said He Would
TTITLE8=If Heaven Never Was Promised To Me
TTITLE9=Take Me Back
TTITLE10=Jesus Is The Answer
TTITLE11=Through It All
TTITLE12=Satisfied
TTITLE13=I Don't Know Why
TTITLE14=Jesus (Every Hour He'll Give You Power)
TTITLE15=I Come That You Might Have Life
TTITLE16=I Didn't Think It Could Be
TTITLE17=Oh I Need Him
TTITLE18=I've Got Confidence
TTITLE19=It Won't Be Long
EXTD=
EXTT0=
EXTT1=
EXTT2=
EXTT3=
EXTT4=
EXTT5=
EXTT6=
EXTT7=
EXTT8=
EXTT9=
EXTT10=
EXTT11=
EXTT12=
EXTT13=
EXTT14=
EXTT15=
EXTT16=
EXTT17=
EXTT18=
EXTT19=
PLAYORDER=
